<mxfile host="app.diagrams.net" modified="2023-06-14T01:26:17.916Z" agent="Mozilla/5.0 (Windows NT 10.0; Win64; x64) AppleWebKit/537.36 (KHTML, like Gecko) Chrome/114.0.0.0 Safari/537.36" etag="u34IvZM3NChAKW2z8kEt" version="21.3.8" type="device">
  <diagram name="Page-1" id="dhkSXT4zP9V_VOPMCktt">
    <mxGraphModel dx="1434" dy="768" grid="1" gridSize="10" guides="1" tooltips="1" connect="1" arrows="1" fold="1" page="1" pageScale="1" pageWidth="850" pageHeight="1100" math="0" shadow="0">
      <root>
        <mxCell id="0" />
        <mxCell id="1" parent="0" />
        <mxCell id="ZjBQ_DdZCA0o465RkurZ-2" value="" style="ellipse;shape=cloud;whiteSpace=wrap;html=1;" vertex="1" parent="1">
          <mxGeometry x="50" width="850" height="540" as="geometry" />
        </mxCell>
        <mxCell id="ZjBQ_DdZCA0o465RkurZ-4" value="Cloud (Kubernetes)" style="text;html=1;strokeColor=none;fillColor=none;align=center;verticalAlign=middle;whiteSpace=wrap;rounded=0;" vertex="1" parent="1">
          <mxGeometry x="400" y="90" width="60" height="30" as="geometry" />
        </mxCell>
        <mxCell id="ZjBQ_DdZCA0o465RkurZ-6" value="Client 1" style="rounded=1;whiteSpace=wrap;html=1;" vertex="1" parent="1">
          <mxGeometry x="170" y="630" width="120" height="60" as="geometry" />
        </mxCell>
        <mxCell id="ZjBQ_DdZCA0o465RkurZ-7" value="Client 2" style="rounded=1;whiteSpace=wrap;html=1;" vertex="1" parent="1">
          <mxGeometry x="560" y="640" width="120" height="60" as="geometry" />
        </mxCell>
        <mxCell id="ZjBQ_DdZCA0o465RkurZ-8" value="Version Query" style="endArrow=classic;html=1;rounded=0;exitX=0.25;exitY=0;exitDx=0;exitDy=0;entryX=0.25;entryY=1;entryDx=0;entryDy=0;" edge="1" parent="1" source="ZjBQ_DdZCA0o465RkurZ-6" target="ZjBQ_DdZCA0o465RkurZ-9">
          <mxGeometry x="0.4522" y="1" width="50" height="50" relative="1" as="geometry">
            <mxPoint x="400" y="420" as="sourcePoint" />
            <mxPoint x="450" y="370" as="targetPoint" />
            <mxPoint as="offset" />
          </mxGeometry>
        </mxCell>
        <mxCell id="ZjBQ_DdZCA0o465RkurZ-9" value="" style="rounded=0;whiteSpace=wrap;html=1;" vertex="1" parent="1">
          <mxGeometry x="220" y="160" width="200" height="250" as="geometry" />
        </mxCell>
        <mxCell id="ZjBQ_DdZCA0o465RkurZ-3" value="Node 1" style="rounded=1;whiteSpace=wrap;html=1;" vertex="1" parent="1">
          <mxGeometry x="255" y="180" width="120" height="30" as="geometry" />
        </mxCell>
        <mxCell id="ZjBQ_DdZCA0o465RkurZ-12" value="Version Query Servers&lt;br&gt;(microservices)" style="text;html=1;strokeColor=none;fillColor=none;align=center;verticalAlign=middle;whiteSpace=wrap;rounded=0;" vertex="1" parent="1">
          <mxGeometry x="255" y="370" width="130" height="30" as="geometry" />
        </mxCell>
        <mxCell id="ZjBQ_DdZCA0o465RkurZ-13" value="Node 2" style="rounded=1;whiteSpace=wrap;html=1;" vertex="1" parent="1">
          <mxGeometry x="255" y="230" width="120" height="30" as="geometry" />
        </mxCell>
        <mxCell id="ZjBQ_DdZCA0o465RkurZ-14" value="Node N" style="rounded=1;whiteSpace=wrap;html=1;" vertex="1" parent="1">
          <mxGeometry x="255" y="320" width="120" height="30" as="geometry" />
        </mxCell>
        <mxCell id="ZjBQ_DdZCA0o465RkurZ-15" value="Version Info" style="endArrow=classic;html=1;rounded=0;exitX=0.5;exitY=1;exitDx=0;exitDy=0;entryX=0.5;entryY=0;entryDx=0;entryDy=0;" edge="1" parent="1" source="ZjBQ_DdZCA0o465RkurZ-9" target="ZjBQ_DdZCA0o465RkurZ-6">
          <mxGeometry width="50" height="50" relative="1" as="geometry">
            <mxPoint x="400" y="420" as="sourcePoint" />
            <mxPoint x="450" y="370" as="targetPoint" />
          </mxGeometry>
        </mxCell>
        <mxCell id="ZjBQ_DdZCA0o465RkurZ-16" value="" style="rounded=0;whiteSpace=wrap;html=1;" vertex="1" parent="1">
          <mxGeometry x="470" y="160" width="280" height="250" as="geometry" />
        </mxCell>
        <mxCell id="ZjBQ_DdZCA0o465RkurZ-17" value="Product package server on CDN&lt;br&gt;(microservices)" style="text;html=1;strokeColor=none;fillColor=none;align=center;verticalAlign=middle;whiteSpace=wrap;rounded=0;" vertex="1" parent="1">
          <mxGeometry x="510" y="370" width="210" height="40" as="geometry" />
        </mxCell>
        <mxCell id="ZjBQ_DdZCA0o465RkurZ-18" value="Node 1" style="rounded=1;whiteSpace=wrap;html=1;" vertex="1" parent="1">
          <mxGeometry x="550" y="180" width="120" height="30" as="geometry" />
        </mxCell>
        <mxCell id="ZjBQ_DdZCA0o465RkurZ-20" value="Node 2" style="rounded=1;whiteSpace=wrap;html=1;" vertex="1" parent="1">
          <mxGeometry x="550" y="230" width="120" height="30" as="geometry" />
        </mxCell>
        <mxCell id="ZjBQ_DdZCA0o465RkurZ-21" value="Node N" style="rounded=1;whiteSpace=wrap;html=1;" vertex="1" parent="1">
          <mxGeometry x="550" y="310" width="120" height="30" as="geometry" />
        </mxCell>
        <mxCell id="ZjBQ_DdZCA0o465RkurZ-22" value="Request new package&lt;br&gt;&amp;nbsp;if version is updated" style="endArrow=classic;html=1;rounded=0;exitX=0.75;exitY=0;exitDx=0;exitDy=0;entryX=0.095;entryY=1.1;entryDx=0;entryDy=0;entryPerimeter=0;" edge="1" parent="1" source="ZjBQ_DdZCA0o465RkurZ-6" target="ZjBQ_DdZCA0o465RkurZ-17">
          <mxGeometry x="-0.0694" y="25" width="50" height="50" relative="1" as="geometry">
            <mxPoint x="400" y="420" as="sourcePoint" />
            <mxPoint x="450" y="370" as="targetPoint" />
            <mxPoint as="offset" />
          </mxGeometry>
        </mxCell>
        <mxCell id="ZjBQ_DdZCA0o465RkurZ-23" value="Send the new package&lt;br&gt;&amp;nbsp;to the client device" style="endArrow=classic;html=1;rounded=0;entryX=1;entryY=0;entryDx=0;entryDy=0;exitX=0.5;exitY=1;exitDx=0;exitDy=0;" edge="1" parent="1" source="ZjBQ_DdZCA0o465RkurZ-17" target="ZjBQ_DdZCA0o465RkurZ-6">
          <mxGeometry x="-0.6536" y="2" width="50" height="50" relative="1" as="geometry">
            <mxPoint x="400" y="420" as="sourcePoint" />
            <mxPoint x="450" y="370" as="targetPoint" />
            <mxPoint as="offset" />
          </mxGeometry>
        </mxCell>
        <mxCell id="ZjBQ_DdZCA0o465RkurZ-24" value="TLS, HTTPS" style="endArrow=classic;startArrow=classic;html=1;rounded=0;exitX=0.25;exitY=0;exitDx=0;exitDy=0;entryX=0.79;entryY=1;entryDx=0;entryDy=0;entryPerimeter=0;" edge="1" parent="1" source="ZjBQ_DdZCA0o465RkurZ-7" target="ZjBQ_DdZCA0o465RkurZ-9">
          <mxGeometry x="-0.1832" y="-9" width="50" height="50" relative="1" as="geometry">
            <mxPoint x="400" y="420" as="sourcePoint" />
            <mxPoint x="450" y="370" as="targetPoint" />
            <mxPoint as="offset" />
          </mxGeometry>
        </mxCell>
        <mxCell id="ZjBQ_DdZCA0o465RkurZ-25" value="" style="endArrow=classic;startArrow=classic;html=1;rounded=0;entryX=0.75;entryY=1;entryDx=0;entryDy=0;" edge="1" parent="1" source="ZjBQ_DdZCA0o465RkurZ-7" target="ZjBQ_DdZCA0o465RkurZ-17">
          <mxGeometry width="50" height="50" relative="1" as="geometry">
            <mxPoint x="400" y="420" as="sourcePoint" />
            <mxPoint x="450" y="370" as="targetPoint" />
          </mxGeometry>
        </mxCell>
        <mxCell id="ZjBQ_DdZCA0o465RkurZ-26" value="User 1" style="shape=umlActor;verticalLabelPosition=bottom;verticalAlign=top;html=1;outlineConnect=0;" vertex="1" parent="1">
          <mxGeometry x="90" y="610" width="30" height="60" as="geometry" />
        </mxCell>
        <mxCell id="ZjBQ_DdZCA0o465RkurZ-29" value="Notify to the customer&lt;br&gt;on failures or errors" style="endArrow=classic;html=1;rounded=0;entryX=0.25;entryY=0.1;entryDx=0;entryDy=0;entryPerimeter=0;exitX=0;exitY=0.75;exitDx=0;exitDy=0;" edge="1" parent="1" source="ZjBQ_DdZCA0o465RkurZ-9" target="ZjBQ_DdZCA0o465RkurZ-26">
          <mxGeometry x="0.3221" y="12" width="50" height="50" relative="1" as="geometry">
            <mxPoint x="400" y="440" as="sourcePoint" />
            <mxPoint x="450" y="390" as="targetPoint" />
            <mxPoint as="offset" />
          </mxGeometry>
        </mxCell>
      </root>
    </mxGraphModel>
  </diagram>
</mxfile>
